<svg viewBox="0 0 24 24" xmlns="http://www.w3.org/2000/svg" fill-rule="evenodd"><path d="M12 .986C18.079.986 23.014 5.921 23.014 12S18.079 23.014 12 23.014.986 18.079.986 12 5.921.986 12 .986zm0 .829c5.621 0 10.185 4.564 10.185 10.185S17.621 22.185 12 22.185 1.815 17.621 1.815 12 6.379 1.815 12 1.815z"/><path d="M11.078 12.158l-.557.703c.648.063 1.227.147 1.736.252.51.106.981.223 1.414.352.434.129.814.264 1.142.404 1.15.516 1.725 1.235 1.725 2.158 0 .562-.24 1.113-.721 1.653-.48.539-1.104 1.02-1.873 1.442-.768.422-1.557.752-2.369.99-.812.239-1.549.358-2.212.358-1.106 0-1.969-.221-2.588-.663-.619-.441-.928-1.045-.928-1.811 0-.531.189-1.157.568-1.876.378-.719.965-1.614 1.758-2.684-.597-.032-1.019-.127-1.267-.288a.76.76 0 0 1-.371-.674c0-.179.047-.316.142-.41a.84.84 0 0 1 .382-.205 8.9 8.9 0 0 1 .923-.158 279.32 279.32 0 0 1 1.753-.235c.793-1.047 1.505-1.835 2.135-2.362.629-.528 1.305-.831 2.025-.909.059-.008.122-.011.191-.011.07 0 .104.019.104.058 0 .047-.082.172-.246.375a97.03 97.03 0 0 1-.797.973l-1.305 1.583c1.369-.195 2.488-.42 3.358-.674.87-.254 1.527-.557 1.971-.909.445-.351.667-.742.667-1.172 0-.524-.237-.903-.71-1.137-.473-.235-1.198-.352-2.173-.352-.539 0-1.156.059-1.851.176-.696.117-1.325.25-1.89.399-.564.148-1.066.306-1.507.474-.44.168-.66.291-.66.37 0 .023.022.047.065.07.357.141.535.258.535.352 0 .125-.546.365-1.638.721-1.092.355-1.827.533-2.206.533-.269 0-.404-.144-.404-.434 0-.344.293-.963.879-1.858.586-.895 1.12-1.467 1.6-1.717.168-.086.557-.223 1.169-.411a31.65 31.65 0 0 1 4.248-.973 13.342 13.342 0 0 1 2.009-.176c1.376 0 2.41.264 3.101.792.692.527 1.038 1.19 1.038 1.987 0 .539-.158 1.059-.475 1.559-.317.5-.81.973-1.48 1.419-.67.445-1.541.836-2.615 1.172-1.074.336-2.339.594-3.795.774zM9.92 13.67c-.378.485-.715.913-1.01 1.284a6.951 6.951 0 0 0-.633.903 1.42 1.42 0 0 0-.191.697c0 .375.18.709.54 1.002.361.294.879.44 1.556.44.627 0 1.294-.119 2.004-.357.71-.239 1.307-.55 1.791-.932.484-.383.726-.77.726-1.161 0-.336-.178-.614-.535-.832-.356-.219-.899-.413-1.627-.581a30.335 30.335 0 0 0-2.621-.463z"/></svg>